<?xml version="1.0" encoding="UTF-8" standalone="no"?>
<!-- Created with Inkscape (http://www.inkscape.org/) -->

<svg
   width="800"
   height="800"
   viewBox="0 0 211.66666 211.66667"
   version="1.1"
   id="svg1"
   xml:space="preserve"
   inkscape:version="1.4.3 (0d15f75042, 2025-12-25)"
   sodipodi:docname="tablaIcon_blue.svg"
   xmlns:inkscape="http://www.inkscape.org/namespaces/inkscape"
   xmlns:sodipodi="http://sodipodi.sourceforge.net/DTD/sodipodi-0.dtd"
   xmlns="http://www.w3.org/2000/svg"
   xmlns:svg="http://www.w3.org/2000/svg"><sodipodi:namedview
     id="namedview1"
     pagecolor="#ffffff"
     bordercolor="#000000"
     borderopacity="0.25"
     inkscape:showpageshadow="2"
     inkscape:pageopacity="0.0"
     inkscape:pagecheckerboard="0"
     inkscape:deskcolor="#d1d1d1"
     inkscape:document-units="mm"
     inkscape:zoom="0.54995539"
     inkscape:cx="445.49068"
     inkscape:cy="280.93188"
     inkscape:window-width="1920"
     inkscape:window-height="1019"
     inkscape:window-x="0"
     inkscape:window-y="0"
     inkscape:window-maximized="1"
     inkscape:current-layer="layer1" /><defs
     id="defs1" /><g
     inkscape:label="Layer 1"
     inkscape:groupmode="layer"
     id="layer1"><path
       style="fill:#2a7fff;fill-opacity:1;stroke-width:1"
       d="m 122.73984,96.815002 c 1.39338,-2.571687 5.41568,-17.274787 5.03849,-18.417686 -1.85966,-5.634814 3.52014,-12.04139 12.84063,-15.291387 19.93591,-6.95152 46.03741,0.828867 45.68299,13.617279 -0.0379,1.366126 0.95274,4.952913 4.2001,15.207934 5.27295,16.651728 5.22219,13.947538 0.56692,30.195488 -4.25341,14.84537 -4.00568,13.04726 -2.18554,15.86337 12.00171,18.56898 -9.62854,33.83275 -40.97619,28.91559 -27.95523,-4.38504 -41.80144,-26.85562 -24.15663,-39.20303 l 0.84156,-0.5889 -1.9235,-6.92403 c -1.05792,-3.80821 -1.98843,-6.85907 -2.06781,-6.7797 m 0,0 c -0.0794,0.0794 -0.54159,1.32406 -1.02714,2.76595 -2.79812,8.30927 -9.20675,17.63234 -15.33057,22.30244 l -1.75782,1.34053 0.51857,2.23971 c 3.53211,15.25505 -16.691379,28.26988 -39.865295,25.6553 C 37.258727,164.79398 21.798461,149.71777 30.65254,136.03478 l 0.643315,-0.99417 -1.504529,-1.55009 C 13.178389,116.37454 12.940457,89.539099 29.115677,57.286625 c 8.22863,-16.407421 44.255319,-18.388558 74.166233,-4.07846 16.45276,7.871381 18.47739,11.479039 18.96494,33.793262 0.12387,5.669277 0.34571,10.085388 0.49299,9.813575 M 76.748923,164.09301 c 13.17209,-1.8803 23.211304,-10.33092 23.054521,-19.40638 -0.04722,-2.73354 -0.250891,-2.85012 -2.579368,-1.47645 -18.573848,10.95757 -45.937985,9.31311 -61.241273,-3.68032 -2.329099,-1.97754 -2.156528,-2.00343 -3.300298,0.4949 -6.026271,13.1631 20.18226,27.47771 44.066418,24.06825 z m 94.584537,-0.51274 c 13.94997,-2.34617 20.74331,-11.99716 15.69574,-22.29823 l -1.12177,-2.28929 -2.27433,2.33099 c -14.94002,15.31223 -47.03662,11.35606 -56.22277,-6.92992 -2.20494,-4.38915 -1.90658,-4.2843 -4.4313,-1.55729 -15.22999,16.4502 15.84951,36.21054 48.35443,30.74374 z M 78.384518,146.07815 c 1.699202,-0.28958 3.927748,-0.76628 4.952325,-1.05932 l 1.862866,-0.53279 -1.007523,-3.00161 c -3.274985,-9.75684 -4.170902,-17.2004 -4.171548,-34.65849 l -5.25e-4,-14.210518 -1.239702,2.216153 c -5.316226,9.503555 -10.824163,22.782785 -13.651219,32.912095 -1.878346,6.73009 -3.822205,17.97856 -3.211978,18.58667 0.788505,0.78577 11.323747,0.62443 16.467304,-0.25219 z m 81.935882,0.12831 c 0.0935,-0.44979 0.83804,-7.2784 1.65459,-15.17469 0.81654,-7.89629 1.58205,-15.1338 1.70111,-16.08335 0.20983,-1.67333 0.18734,-1.72647 -0.73062,-1.72647 -1.28307,0 -2.27071,-1.46067 -1.70385,-2.51989 0.23948,-0.44746 0.76439,-0.7513 1.29797,-0.7513 1.17478,0 1.17285,-0.0502 -0.37626,-9.81358 -0.69966,-4.409714 -1.27212,-8.094621 -1.27212,-8.188685 0,-0.09405 -1.54083,-0.171016 -3.42405,-0.171016 h -3.42405 l -0.2066,0.999533 c -0.18953,0.916933 -2.29176,14.621548 -2.4909,16.238408 -0.0629,0.51083 0.22181,0.78105 1.05246,0.9989 1.98475,0.52053 1.62253,3.20763 -0.43239,3.20763 -0.48842,0 -0.89141,0.12268 -0.89552,0.2726 -0.0167,0.61094 3.35841,32.65556 3.48371,33.07538 0.27749,0.9297 5.56705,0.5963 5.76652,-0.36347 z m -9.22548,0 c 0.01,-0.24989 -0.76598,-7.93718 -1.72329,-17.08289 l -1.74057,-16.62855 h -0.97674 c -2.7677,0 -2.71045,-3.09937 0.0618,-3.34172 l 1.27213,-0.1112 1.34974,-8.70614 c 0.74237,-4.78838 1.30243,-8.753466 1.24459,-8.811306 -0.0578,-0.05781 -1.48303,-0.350301 -3.16708,-0.649906 -1.68404,-0.299606 -3.8236,-0.779115 -4.75456,-1.065579 l -1.69265,-0.520831 -2.06635,8.604748 c -1.13649,4.732624 -2.1417,8.936514 -2.23379,9.341994 -0.132,0.58121 0.0866,0.81197 1.03301,1.09039 1.98732,0.58465 1.74595,3.07915 -0.29792,3.07915 -1.10755,0 -1.23324,-1.53652 1.38994,16.99096 l 2.27699,16.08229 1.64171,0.53952 c 4.46348,1.46684 8.35157,2.01833 8.38311,1.18907 z m 15.78882,-0.0962 c 1.39677,-0.29586 3.5347,-0.86909 4.75097,-1.27384 l 2.21138,-0.7359 2.254,-16.07533 c 2.6182,-18.67269 2.44516,-16.62054 1.4015,-16.62054 -1.04155,0 -1.70829,-0.63836 -1.70829,-1.63559 0,-0.99723 0.66674,-1.63559 1.70829,-1.63559 1.03292,0 1.2106,1.22539 -1.38094,-9.523478 -2.63134,-10.91395 -1.71056,-9.65353 -6.21479,-8.507246 -2.05942,0.524108 -4.21558,0.951774 -4.79148,0.950373 -1.00729,-0.0027 -1.03868,0.04928 -0.82585,1.360453 0.12168,0.749652 0.74794,4.838633 1.39167,9.086648 l 1.17045,7.72364 h 1.17417 c 1.16162,0 2.3165,0.76879 2.3165,1.54207 0,0.78553 -1.2208,1.72912 -2.23712,1.72912 -0.82897,0 -1.0348,0.1622 -1.03774,0.8178 -0.002,0.44979 -0.73783,7.68729 -1.63515,16.08336 -1.70196,15.925 -1.80783,17.26867 -1.35977,17.2583 0.14993,-0.004 1.41541,-0.24838 2.8122,-0.54425 z M 55.726447,140.60837 c -3.761261,-14.98334 -4.142429,-43.508709 -0.732029,-54.782726 0.35014,-1.157478 -0.518894,-0.328477 -2.562624,2.444596 -7.448229,10.106251 -12.859282,23.99224 -16.017876,41.10548 l -0.935413,5.06805 1.008065,0.84594 c 6.092752,5.11281 11.038279,7.8942 17.225023,9.68747 3.739633,1.08395 3.509127,1.58376 2.014854,-4.36881 z m 39.922688,-0.59702 c 3.293045,-1.89685 7.179955,-4.82895 9.369885,-7.0682 l 1.7371,-1.77623 -0.73195,-3.06455 c -1.45408,-6.08797 -1.88866,-23.45051 -0.90921,-36.324891 l 0.17973,-2.362526 -1.47302,3.07661 C 96.917843,106.91117 91.02586,127.03883 89.799926,140.39136 l -0.24197,2.63548 1.77346,-0.77499 c 0.975403,-0.42623 2.918377,-1.43447 4.317719,-2.2405 z m 39.623935,-13.20187 c -2.4671,-17.69456 -2.13333,-16.13179 -3.44542,-16.13179 -0.95781,0 -2.19448,-1.05507 -2.19448,-1.87223 0,-0.65404 1.25878,-1.39896 2.364,-1.39896 0.85093,0 1.27764,-0.19302 1.4061,-0.63606 0.10143,-0.34984 1.09833,-4.47972 2.21533,-9.177508 1.117,-4.697798 2.10085,-8.740205 2.18633,-8.983128 0.0876,-0.24893 -0.78197,-0.941316 -1.99251,-1.586527 -1.18136,-0.629662 -2.81746,-1.717926 -3.63577,-2.418374 -1.86076,-1.592738 -1.33195,-2.551012 -4.88366,8.849916 -1.6743,5.374501 -3.23846,10.262511 -3.47591,10.862221 -1.38166,3.48968 2.49916,20.45596 6.58347,28.78173 1.75092,3.5692 6.45599,9.52002 6.77363,8.56707 0.0661,-0.19809 -0.78947,-6.88345 -1.90111,-14.85636 z m 44.90955,13.35246 c 2.93243,-2.61364 3.53739,-4.07078 7.56545,-18.22235 4.52278,-15.88964 4.49335,-13.82491 0.38239,-26.83324 -1.81054,-5.729048 -3.46147,-10.956053 -3.66874,-11.615574 l -0.37686,-1.199123 -1.6977,1.587999 c -0.93373,0.873393 -2.51311,2.05546 -3.50971,2.626797 -0.99661,0.571347 -1.86424,1.075561 -1.92808,1.120474 -0.0998,0.07029 3.28979,14.498237 4.32671,18.416587 0.32357,1.22268 0.48272,1.36299 1.54612,1.36299 2.83069,0 2.9299,2.67249 0.12055,3.24707 l -1.092,0.22333 -2.10608,14.71162 c -2.69181,18.80313 -2.73395,17.40048 0.43795,14.57342 z M 60.386339,132.13405 c 2.735513,-12.64294 9.895879,-30.28776 17.243314,-42.491561 1.967128,-3.267322 2.011373,-3.680463 0.394145,-3.680463 -1.590952,0 -10.238886,-1.67954 -14.646909,-2.844621 -2.15706,-0.570135 -3.98334,-0.93724 -4.058398,-0.815787 -0.07506,0.121443 -0.553583,2.75299 -1.063389,5.84787 -2.729112,16.567642 -2.659693,35.974782 0.174191,48.697732 0.515571,2.31469 0.350367,2.71255 1.957046,-4.71317 z m 27.478401,-2.73787 c 2.196442,-11.70055 7.225428,-26.83796 13.04891,-39.277656 2.15021,-4.593132 2.25383,-4.239116 -1.112853,-3.802158 -1.483789,0.192579 -5.576981,0.355201 -9.09598,0.361369 l -6.398182,0.01122 -0.234791,2.77758 c -1.55615,18.409235 -0.803673,35.754915 1.978588,45.609275 l 0.448825,1.58967 0.307475,-1.63558 c 0.169111,-0.89959 0.645215,-3.43476 1.058008,-5.63372 z m -58.703412,-4.2173 C 25.422315,108.87179 27.498472,87.175845 34.182301,72.709573 l 1.302304,-2.818668 -1.6054,-1.879139 c -0.88297,-1.03353 -2.018308,-2.606079 -2.522975,-3.494555 l -0.917575,-1.615424 -0.962408,2.170881 C 18.63294,89.531639 17.84071,110.36779 27.221038,124.38619 c 2.590019,3.87064 2.651818,3.89589 1.94029,0.79269 z m 82.434542,-0.41689 c 5.78988,-9.29467 7.23921,-16.0128 7.21917,-33.46314 -0.0149,-12.971152 0.0885,-12.344273 -1.78821,-10.841396 -0.7629,0.610927 -2.79692,1.770146 -4.52007,2.57604 l -3.13297,1.465272 -0.24129,2.821558 c -1.29417,15.134636 -1.28871,31.734846 0.0128,38.895526 0.30622,1.68483 0.6063,1.50681 2.45058,-1.45386 z m -76.629994,-5.30432 c 3.98542,-16.07823 10.44769,-29.480815 18.141944,-37.625911 0.729603,-0.772356 1.27698,-1.4465 1.216393,-1.498092 -0.06059,-0.05162 -1.909314,-0.852872 -4.108281,-1.780623 -2.198966,-0.927751 -5.715497,-2.731446 -7.81451,-4.008204 -4.437646,-2.699271 -3.95123,-2.883798 -6.027223,2.286427 -4.27518,10.647245 -6.305395,24.699523 -5.283832,36.572423 0.391822,4.55385 1.790334,13.09479 2.094385,12.79074 0.08134,-0.0813 0.88285,-3.11288 1.781124,-6.73676 z M 162.16334,88.13964 c 31.6598,-3.490829 24.44572,-25.850054 -7.81451,-24.220222 -30.42336,1.537026 -31.71546,20.771801 -1.63559,24.3483 2.295,0.27288 6.30678,0.218505 9.4501,-0.128078 z m -10.26887,-8.759632 c -12.83125,-2.138078 -12.40164,-10.797076 0.63024,-12.70259 11.3284,-1.656432 21.26835,3.386146 17.39563,8.824879 -2.19375,3.080839 -11.19176,5.01648 -18.02587,3.877711 z m -50.27893,3.123112 c 21.50245,-3.529475 21.62089,-15.690253 0.2534,-26.018628 C 74.968298,43.481566 33.293578,44.874009 33.318191,58.774923 33.342511,72.508779 74.785472,86.907094 101.61554,82.50312 Z M 73.477732,73.264347 C 55.58549,69.074372 54.433312,56.191467 71.948327,56.163521 c 13.925929,-0.02217 25.558922,8.405247 20.037902,14.516356 -2.75729,3.051995 -11.374029,4.255212 -18.508497,2.58447 z"
       id="path1"
       sodipodi:nodetypes="csssssssscsccsscssscsssscsssssssscsssssscsscssssssssssssscsssscsssscsscsssscssssscssssscsssssscsscssscscssssscssssscsscsscsssssssssssssscssssscsssssscsssssssssssssscsscsssscsscssscssscssccsscssssssssssssssssssscss" /></g></svg>
